<svg width="23" height="23" viewBox="0 0 23 23" fill="none" xmlns="http://www.w3.org/2000/svg">
<path d="M11.5 1.4375C6.18477 1.4375 1.875 5.94316 1.875 11.5C1.875 17.0568 6.18477 21.5625 11.5 21.5625C16.8152 21.5625 21.125 17.0568 21.125 11.5C21.125 5.94316 16.8152 1.4375 11.5 1.4375ZM16.1256 9.02256C16.132 9.12813 16.132 9.23818 16.132 9.346C16.132 12.6433 13.7301 16.4414 9.34082 16.4414C7.9873 16.4414 6.73262 16.0304 5.67559 15.3229C5.86895 15.3453 6.05371 15.3543 6.25137 15.3543C7.36856 15.3543 8.39551 14.959 9.21406 14.2896C8.16563 14.2672 7.28477 13.5484 6.98398 12.5602C7.35137 12.6163 7.68223 12.6163 8.06035 12.5152C7.52051 12.4006 7.03528 12.0941 6.68711 11.6478C6.33893 11.2015 6.14929 10.6429 6.15039 10.067V10.0355C6.46621 10.222 6.83789 10.3365 7.22676 10.3522C6.89986 10.1245 6.63177 9.8159 6.44625 9.45388C6.26074 9.09185 6.16355 8.68756 6.16328 8.27686C6.16328 7.81191 6.2793 7.3874 6.4877 7.01904C7.0869 7.79021 7.83462 8.42092 8.68225 8.8702C9.52988 9.31947 10.4585 9.57724 11.4076 9.62676C11.0703 7.93096 12.282 6.55859 13.7387 6.55859C14.4262 6.55859 15.0449 6.85957 15.4811 7.34473C16.0203 7.23916 16.5359 7.02803 16.9957 6.74502C16.8174 7.32227 16.4436 7.80967 15.9473 8.11738C16.4285 8.06348 16.8926 7.92422 17.3223 7.72881C16.9979 8.22744 16.5918 8.66992 16.1256 9.02256Z" fill="white"/>
</svg>
