<svg width="23" height="23" viewBox="0 0 23 23" fill="none" xmlns="http://www.w3.org/2000/svg">
<path d="M11.5086 2.13925C16.8217 2.1371 21.125 6.43828 21.125 11.7471C21.125 15.9451 18.433 19.5137 14.684 20.8242C14.1791 20.951 14.2564 20.5922 14.2564 20.3473V18.6822C17.1719 19.0238 17.29 17.0945 17.4855 16.7723C17.8809 16.0977 18.8154 15.9258 18.5361 15.6035C17.8723 15.2619 17.1955 15.6894 16.4113 16.8475C15.8441 17.6875 14.7377 17.5457 14.177 17.4061C14.0545 16.9012 13.7924 16.45 13.4314 16.0998C16.4521 15.5584 17.7111 13.715 17.7111 11.5236C17.7111 10.4602 17.3609 9.48261 16.6734 8.69414C17.1117 7.39433 16.6326 6.28144 16.5682 6.11601C15.3199 6.00429 14.0223 7.00976 13.9213 7.08925C13.2123 6.89804 12.4023 6.79707 11.4957 6.79707C10.5848 6.79707 9.77266 6.90234 9.05723 7.0957C8.81445 6.91093 7.61133 6.04726 6.45117 6.15253C6.38887 6.31796 5.92051 7.40507 6.33301 8.68769C5.63691 9.47832 5.28242 10.4644 5.28242 11.5301C5.28242 13.7258 6.55 15.5713 9.5793 16.1041C9.31983 16.3593 9.11381 16.6636 8.97326 16.9993C8.83272 17.3349 8.76047 17.6953 8.76074 18.0592V20.4762C8.74356 20.6695 8.76074 20.8607 8.43848 20.8607C4.63359 19.5781 1.89434 15.9838 1.89434 11.7492C1.89434 6.43828 6.1998 2.13925 11.5086 2.13925Z" fill="white"/>
</svg>
