<svg width="23" height="23" viewBox="0 0 23 23" fill="none" xmlns="http://www.w3.org/2000/svg">
<path d="M10.9865 13.5904V15.9816L6.96465 13.3047L8.76074 12.1059L10.9865 13.5904ZM16.4457 10.632V12.3465L15.1609 11.4893L16.4457 10.632ZM11.5 21.125C6.18477 21.125 1.875 16.8152 1.875 11.5C1.875 6.18477 6.18477 1.875 11.5 1.875C16.8152 1.875 21.125 6.18477 21.125 11.5C21.125 16.8152 16.8152 21.125 11.5 21.125ZM17.4727 9.67383C17.4727 9.6502 17.4705 9.62871 17.4684 9.60723C17.4684 9.59863 17.4662 9.59219 17.4641 9.58574C17.461 9.56223 17.4553 9.53916 17.4469 9.51699C17.4426 9.5041 17.4383 9.49121 17.434 9.48047C17.4297 9.47188 17.4254 9.46328 17.4232 9.45469C17.4168 9.44394 17.4125 9.43106 17.4061 9.42031C17.4018 9.41172 17.3975 9.40527 17.391 9.39668C17.3846 9.38594 17.376 9.37519 17.3695 9.36445C17.3631 9.35586 17.3588 9.34941 17.3523 9.34297C17.3438 9.33437 17.3352 9.32363 17.3266 9.31504C17.3201 9.30859 17.3137 9.30215 17.3051 9.2957C17.2965 9.28711 17.2857 9.27852 17.275 9.27207C17.2664 9.26562 17.26 9.25918 17.2514 9.25488C17.2492 9.25273 17.2449 9.25059 17.2428 9.24844L11.7836 5.61328C11.6977 5.55527 11.5988 5.52734 11.5 5.52734C11.399 5.52734 11.3002 5.55742 11.2143 5.61328L5.75508 9.24629C5.75293 9.24844 5.74863 9.25059 5.74648 9.25274L5.72285 9.26992C5.71211 9.27852 5.70352 9.28496 5.69492 9.29355C5.68848 9.3 5.68203 9.30645 5.67344 9.31289C5.66484 9.32148 5.65625 9.33008 5.64766 9.34082C5.64128 9.34744 5.63553 9.35463 5.63047 9.3623C5.62188 9.37305 5.61543 9.38379 5.60898 9.39453C5.60469 9.40312 5.59824 9.40957 5.59395 9.41816C5.5875 9.42891 5.58105 9.4418 5.57676 9.45254C5.57246 9.46113 5.56816 9.46973 5.56602 9.47832C5.56172 9.49121 5.55742 9.5041 5.55312 9.51484C5.55098 9.52344 5.54668 9.53203 5.54453 9.54062C5.54023 9.55566 5.53809 9.56855 5.53594 9.58359C5.53379 9.59004 5.53379 9.59863 5.53164 9.60508C5.52949 9.62656 5.52734 9.6502 5.52734 9.67168V13.3068C5.52734 13.3283 5.52949 13.352 5.53164 13.3734C5.53379 13.3799 5.53379 13.3885 5.53594 13.3949C5.53897 13.4184 5.54474 13.4415 5.55312 13.4637C5.55742 13.4766 5.56172 13.4895 5.56602 13.5002C5.57031 13.5088 5.57461 13.5174 5.57676 13.526C5.58105 13.5367 5.5875 13.5496 5.59395 13.5604C5.59824 13.5689 5.60254 13.5754 5.60898 13.584C5.62188 13.6033 5.63477 13.6205 5.64766 13.6377C5.65625 13.6463 5.66484 13.657 5.67344 13.6656C5.67988 13.6721 5.68633 13.6785 5.69492 13.685C5.70352 13.6936 5.71426 13.7021 5.72285 13.7086C5.73145 13.715 5.73789 13.7215 5.74648 13.7258C5.74863 13.7279 5.75293 13.7301 5.75508 13.7322L11.2143 17.3652C11.3861 17.4791 11.6117 17.4791 11.7836 17.3652L17.2428 13.7322C17.2449 13.7301 17.2492 13.7279 17.2514 13.7258L17.275 13.7086L17.3051 13.685C17.3115 13.6785 17.318 13.6721 17.3266 13.6656C17.3352 13.657 17.3438 13.6484 17.3523 13.6377C17.3674 13.6205 17.3803 13.6033 17.391 13.584C17.3953 13.5754 17.4018 13.5689 17.4061 13.5604C17.4125 13.5496 17.4189 13.5389 17.4232 13.526C17.4275 13.5174 17.4318 13.5088 17.434 13.5002C17.4383 13.4873 17.4426 13.4744 17.4469 13.4637C17.449 13.4551 17.4533 13.4465 17.4555 13.4379C17.4598 13.4229 17.4619 13.41 17.4641 13.3949C17.4662 13.3885 17.4662 13.3799 17.4684 13.3734C17.4705 13.352 17.4727 13.3283 17.4727 13.3068V9.67383ZM12.0135 9.38809V6.99688L16.0354 9.67383L14.2393 10.8727L12.0135 9.38809ZM6.5543 12.3465V10.632L7.83906 11.4893L6.5543 12.3465ZM11.5 12.701L9.68457 11.4893L11.5 10.2775L13.3154 11.4893L11.5 12.701ZM16.0354 13.3047L12.0135 15.9816V13.5904L14.2393 12.1059L16.0354 13.3047ZM8.76074 10.8727L6.96465 9.67383L10.9865 6.99688V9.38809L8.76074 10.8727Z" fill="white"/>
</svg>
