<svg width="14" height="14" viewBox="0 0 14 14" fill="none" xmlns="http://www.w3.org/2000/svg">
<path fill-rule="evenodd" clip-rule="evenodd" d="M6.63367 0.110932C6.85533 -0.0366517 7.14408 -0.0366517 7.36633 0.110932L13.7037 4.31676C13.8886 4.43926 14 4.64635 14 4.8686V9.1316C14 9.35326 13.8892 9.56093 13.7037 9.68401L7.36633 13.8898C7.14467 14.0368 6.85592 14.0368 6.63367 13.8898L0.296333 9.68343C0.205266 9.62302 0.130554 9.54102 0.0788514 9.44474C0.0271488 9.34846 6.08032e-05 9.24088 0 9.1316L0 4.8686C0 4.64693 0.110833 4.43926 0.296333 4.31618L6.63367 0.110932ZM1.32533 6.10352V7.88735L2.66 6.98901L1.32533 6.10352ZM3.85525 7.78235L1.855 9.1281L6.33733 12.1031V9.42968L3.85583 7.78235H3.85525ZM7.66267 9.42968V12.1025L12.145 9.12751L10.1442 7.78235L7.66267 9.42968ZM11.3394 6.9896L12.6753 7.88793V6.10293L11.3394 6.9896ZM12.1392 4.8686L10.15 6.18868L7.66267 4.51568V1.89768L12.1392 4.8686ZM6.33733 1.89768V4.5151L3.85058 6.1881L1.86083 4.8686L6.33733 1.89768ZM7 5.66718L5.04583 6.98201L7 8.27876L8.95417 6.98201L7 5.66718Z" fill="black"/>
</svg>
