<svg width="20" height="19" viewBox="0 0 20 19" fill="none" xmlns="http://www.w3.org/2000/svg">
<g clip-path="url(#clip0)">
<path d="M10 0.380005C4.96311 0.380005 0.880005 4.46311 0.880005 9.50001C0.880005 14.5369 4.96311 18.62 10 18.62C15.0369 18.62 19.12 14.5369 19.12 9.50001C19.12 4.46311 15.0369 0.380005 10 0.380005ZM7.76751 13.2801H5.9207V7.33686H7.76751V13.2801ZM6.83271 6.60725C6.2494 6.60725 5.87226 6.19401 5.87226 5.6829C5.87226 5.16136 6.26081 4.76046 6.85645 4.76046C7.45211 4.76046 7.81691 5.16136 7.82831 5.6829C7.82831 6.19401 7.45211 6.60725 6.83271 6.60725ZM14.5125 13.2801H12.6657V9.98641C12.6657 9.21976 12.3978 8.69915 11.73 8.69915C11.2198 8.69915 10.9168 9.05161 10.7828 9.39076C10.7334 9.51141 10.7211 9.68241 10.7211 9.85246V13.2791H8.87331V9.23211C8.87331 8.49016 8.84956 7.86981 8.82486 7.33591H10.4294L10.514 8.16146H10.551C10.7942 7.77386 11.3899 7.20195 12.3864 7.20195C13.6015 7.20195 14.5125 8.01611 14.5125 9.76601V13.2801Z" fill="white"/>
</g>
<defs>
<clipPath id="clip0">
<rect width="19" height="19" fill="white" transform="translate(0.5)"/>
</clipPath>
</defs>
</svg>
