<svg width="14" height="14" viewBox="0 0 14 14" fill="none" xmlns="http://www.w3.org/2000/svg">
<path fill-rule="evenodd" clip-rule="evenodd" d="M0.583332 1.65551C0.583332 1.37116 0.696292 1.09845 0.897363 0.897375C1.09843 0.696305 1.37114 0.583345 1.6555 0.583345H12.3433C12.4843 0.583115 12.6238 0.610682 12.7541 0.664467C12.8843 0.718253 13.0027 0.797201 13.1024 0.896791C13.2021 0.996381 13.2812 1.11466 13.3351 1.24485C13.389 1.37504 13.4167 1.51459 13.4167 1.65551V12.3433C13.4168 12.4843 13.3892 12.6239 13.3353 12.7541C13.2815 12.8844 13.2025 13.0028 13.1028 13.1024C13.0032 13.2021 12.8849 13.2812 12.7547 13.3351C12.6244 13.389 12.4849 13.4168 12.3439 13.4167H1.6555C1.51465 13.4167 1.37518 13.3889 1.24506 13.335C1.11494 13.2811 0.996724 13.2021 0.897156 13.1024C0.797589 13.0028 0.718626 12.8846 0.664779 12.7544C0.610931 12.6243 0.583256 12.4848 0.583332 12.3439V1.65551ZM5.663 5.47634H7.40075V6.34901C7.65158 5.84734 8.29325 5.39584 9.2575 5.39584C11.1061 5.39584 11.5442 6.39509 11.5442 8.22851V11.6247H9.67342V8.64618C9.67342 7.60201 9.42258 7.01285 8.78558 7.01285C7.90183 7.01285 7.53433 7.64809 7.53433 8.64618V11.6247H5.663V5.47634ZM2.45467 11.5448H4.326V5.39584H2.45467V11.5442V11.5448ZM4.59375 3.39034C4.59728 3.55057 4.56877 3.70989 4.50989 3.85894C4.45101 4.008 4.36295 4.1438 4.25088 4.25836C4.13881 4.37293 4.00499 4.46395 3.85726 4.5261C3.70954 4.58824 3.55089 4.62025 3.39062 4.62025C3.23036 4.62025 3.07171 4.58824 2.92398 4.5261C2.77626 4.46395 2.64243 4.37293 2.53036 4.25836C2.41829 4.1438 2.33024 4.008 2.27136 3.85894C2.21248 3.70989 2.18397 3.55057 2.1875 3.39034C2.19442 3.07584 2.32422 2.77656 2.5491 2.55658C2.77397 2.3366 3.07605 2.21342 3.39062 2.21342C3.7052 2.21342 4.00727 2.3366 4.23215 2.55658C4.45702 2.77656 4.58682 3.07584 4.59375 3.39034Z" fill="white"/>
</svg>
