<svg width="14" height="12" viewBox="0 0 14 12" fill="none" xmlns="http://www.w3.org/2000/svg">
<path d="M3.19719 0.995977C3.14553 0.939023 3.08033 0.892141 3.00592 0.858446C2.9315 0.824751 2.84957 0.805013 2.76557 0.800544C2.68157 0.796075 2.59742 0.806977 2.51871 0.832526C2.44 0.858074 2.36854 0.897685 2.30906 0.948727L1.40431 1.72498C0.981689 2.08798 0.825939 2.60173 1.01056 3.05248C1.77684 4.91817 3.02332 6.61205 4.65756 8.00848C6.28675 9.40924 8.26294 10.4777 10.4396 11.1345C10.9654 11.2927 11.5648 11.1592 11.9883 10.797L12.8931 10.0215C12.9526 9.9705 12.9988 9.90925 13.0286 9.84178C13.0584 9.77432 13.0712 9.70219 13.0659 9.63019C13.0607 9.55819 13.0377 9.48796 12.9984 9.42418C12.9591 9.36039 12.9044 9.3045 12.8379 9.26023L10.8193 7.91473C10.7483 7.86754 10.6658 7.83478 10.5778 7.81893C10.4899 7.80308 10.399 7.80455 10.3118 7.82323L8.39556 8.23348C8.13978 8.28827 7.87181 8.28537 7.61773 8.22504C7.36365 8.16471 7.13212 8.04902 6.94569 7.88923L4.79669 6.04648C4.61011 5.88676 4.47497 5.68834 4.40444 5.47055C4.3339 5.25277 4.33037 5.02303 4.39419 4.80373L4.87369 3.16123C4.89548 3.08652 4.8972 3.00855 4.87871 2.9332C4.86021 2.85785 4.822 2.78707 4.76694 2.72623L3.19719 0.995977ZM1.64844 0.383227C1.80156 0.251939 1.98551 0.150075 2.18809 0.084398C2.39066 0.0187212 2.60721 -0.00926533 2.82337 0.00229689C3.03953 0.0138591 3.25035 0.0647055 3.44182 0.15146C3.6333 0.238214 3.80105 0.358891 3.93394 0.505477L5.50369 2.23498C5.79156 2.55223 5.89306 2.96548 5.77931 3.35548L5.30069 4.99798C5.27594 5.08305 5.27728 5.17216 5.30457 5.25666C5.33186 5.34116 5.38418 5.41817 5.45644 5.48023L7.60631 7.32298C7.6788 7.38504 7.7688 7.42996 7.86755 7.45336C7.9663 7.47675 8.07043 7.47783 8.16981 7.45648L10.0852 7.04623C10.3097 6.99811 10.5441 6.99437 10.7706 7.0353C10.997 7.07623 11.2097 7.16075 11.3924 7.28248L13.4102 8.62798C14.1356 9.11173 14.2021 10.0305 13.5528 10.5862L12.6481 11.3617C12.0006 11.9167 11.0328 12.1605 10.1307 11.8882C7.82172 11.1919 5.7253 10.0589 3.99694 8.57323C2.26382 7.09199 0.941971 5.29532 0.129439 3.31648C-0.187311 2.54398 0.097064 1.71373 0.744564 1.15873L1.64931 0.383227H1.64844Z" fill="#777777"/>
</svg>
