<svg width="14" height="14" viewBox="0 0 14 14" fill="none" xmlns="http://www.w3.org/2000/svg">
<path fill-rule="evenodd" clip-rule="evenodd" d="M10.1588 8.38949C9.98492 8.30258 9.13267 7.88374 8.974 7.82541C8.81533 7.76766 8.69983 7.73908 8.58375 7.91291C8.46825 8.08558 8.13633 8.47641 8.03542 8.59191C7.93392 8.708 7.833 8.72199 7.65975 8.63566C7.4865 8.54816 6.92767 8.36558 6.26558 7.77525C5.7505 7.31558 5.40225 6.74799 5.30133 6.57416C5.20042 6.40091 5.29025 6.30699 5.37717 6.22066C5.45533 6.14308 5.55042 6.01824 5.63733 5.91733C5.72425 5.81583 5.75283 5.74349 5.81058 5.62741C5.86892 5.51191 5.83975 5.41099 5.796 5.32408C5.75283 5.23716 5.40633 4.38374 5.26167 4.03666C5.12108 3.69891 4.97817 3.74499 4.872 3.73916C4.7705 3.73449 4.655 3.73333 4.5395 3.73333C4.424 3.73333 4.23617 3.77649 4.0775 3.95033C3.91825 4.12358 3.47083 4.54299 3.47083 5.39641C3.47083 6.24924 4.0915 7.07349 4.17842 7.18958C4.26533 7.30508 5.4005 9.05624 7.13942 9.80699C7.55358 9.98549 7.87617 10.0922 8.12758 10.1716C8.54292 10.304 8.92092 10.2853 9.21958 10.2404C9.55208 10.1908 10.2451 9.82099 10.3898 9.41616C10.5338 9.01133 10.5338 8.66424 10.4907 8.59191C10.4475 8.51958 10.332 8.47641 10.1582 8.38949H10.1588ZM6.99592 12.7079H6.99358C5.96075 12.7081 4.94688 12.4305 4.05825 11.9041L3.84825 11.7792L1.66542 12.3521L2.24817 10.2241L2.11108 10.0059C1.53366 9.08678 1.22809 8.02303 1.22967 6.93758C1.23083 3.75841 3.81733 1.17191 6.99825 1.17191C8.53825 1.17191 9.98608 1.77274 11.0746 2.86241C11.6115 3.39708 12.037 4.03291 12.3266 4.7331C12.6161 5.43329 12.764 6.18396 12.7616 6.94166C12.7604 10.1208 10.1739 12.7079 6.99592 12.7079ZM11.9029 2.03466C11.2602 1.3877 10.4955 0.874723 9.65305 0.52546C8.81064 0.176197 7.90728 -0.00240833 6.99533 -6.614e-06C3.17217 -6.614e-06 0.0595 3.11208 0.0583333 6.93699C0.05775 8.15966 0.376833 9.35316 0.984083 10.4049L0 14L3.67733 13.0352C4.69459 13.5894 5.83455 13.8798 6.993 13.8798H6.99592C10.8191 13.8798 13.9318 10.7677 13.9329 6.94224C13.9357 6.03065 13.7578 5.12755 13.4093 4.28518C13.0609 3.44281 12.5489 2.67788 11.9029 2.03466Z" fill="black"/>
</svg>
